<svg version="1.1" xmlns="http://www.w3.org/2000/svg" xmlns:xlink="http://www.w3.org/1999/xlink" width="194" height="194" viewBox="0,0,194,194"><g transform="translate(-143,-83)"><g data-paper-data="{&quot;isPaintingLayer&quot;:true}" fill-rule="nonzero" stroke="none" stroke-width="0" stroke-linecap="butt" stroke-linejoin="miter" stroke-miterlimit="10" stroke-dasharray="" stroke-dashoffset="0" style="mix-blend-mode: normal"><path d="M143,277v-194h194v194z" fill="#450000"/><path d="M248.59536,190.95118c0,0 -6.85123,18.45624 -18.99139,31.57569c-5.33396,5.76423 -12.87558,9.42229 -20.85852,12.18234c-5.71726,1.9767 -15.75232,1.47618 -15.75232,1.47618l-0.06189,-22.08637c0,0 5.10281,0.10562 9.03958,-0.82854c4.35064,-1.03237 7.57225,-3.11335 7.46961,-3.08948c-2.70244,0.62847 6.39084,-3.68554 10.48825,-12.56316c2.78417,-6.03231 13.42882,-32.91677 16.33333,-38.33333c8.43438,-15.72908 14.11147,-22.11104 22.07303,-27.51998c2.46359,-1.67371 10.9918,-7.31678 19.23121,-7.90606c2.01441,-0.14407 9.50248,-0.09081 9.50248,-0.09081l-0.06651,22.55348c0,0 -11.18133,1.74236 -14.73418,3.70131c-2.69229,1.79283 -8.08453,4.54469 -13.91688,17.73174c-0.55634,1.25788 16.26641,1.02439 16.26641,1.02439l-0.02223,22.17259z" fill="#f5f5f5"/></g></g></svg>