<svg version="1.1" xmlns="http://www.w3.org/2000/svg" xmlns:xlink="http://www.w3.org/1999/xlink" width="95.66097" height="83.28852" viewBox="0,0,95.66097,83.28852"><g transform="translate(-192.16953,-138.35575)"><g data-paper-data="{&quot;isPaintingLayer&quot;:true}" fill-rule="nonzero" stroke-linejoin="miter" stroke-miterlimit="10" stroke-dasharray="" stroke-dashoffset="0" style="mix-blend-mode: normal"><path d="M228.37221,200.53757l-0.35107,-42.47941h42.47941v41.07513c0,0 -2.02644,3.01151 -4.58687,3.20195c-6.78956,0.50501 -37.54147,-1.79768 -37.54147,-1.79768z" fill="#000000" stroke="none" stroke-width="0" stroke-linecap="butt"/><path d="M271.20268,195.62261l-2.45749,-41.77727l-34.19811,-0.07973l9.76501,-11.16557l39.17802,-0.33999l0.35107,41.4262z" fill="#1c1c1c" stroke="none" stroke-width="0" stroke-linecap="butt"/><path d="M195.02061,219.14426l-0.35107,-39.31978l23.17059,-23.17059l8.86693,0.57738l-0.0902,41.1999l-20.36203,20.7131z" fill="#1c1c1c" stroke="none" stroke-width="0" stroke-linecap="butt"/><path d="M207.042,218.09103v-38.88368l20.01096,-20.01096v40.02192l-19.83543,19.83543" fill="none" stroke="#404040" stroke-width="5" stroke-linecap="round"/><path d="M230.8297,155.2496l14.39385,-14.39385h35.10695" fill="none" stroke="#404040" stroke-width="5" stroke-linecap="round"/><path d="M266.02167,155.33462l14.39385,-14.39385" fill="none" stroke="#404040" stroke-width="5" stroke-linecap="round"/><path d="M280.76658,140.94078l4.56391,3.51069v40.02192" fill="none" stroke="#404040" stroke-width="5" stroke-linecap="round"/><path d="M270.6706,198.95228l14.39385,-14.39385" fill="none" stroke="#404040" stroke-width="5" stroke-linecap="round"/><path d="M270.40455,159.01537l14.39385,-14.39385" fill="none" stroke="#404040" stroke-width="5" stroke-linecap="round"/><path d="M194.66954,179.47341h10.88315" fill="none" stroke="#404040" stroke-width="5" stroke-linecap="round"/><path d="M239.07435,144.53649l4.56391,-3.51069" data-paper-data="{&quot;index&quot;:null}" fill="none" stroke="#404040" stroke-width="5" stroke-linecap="round"/><path d="M227.30804,156.29186l11.23423,-11.23423" fill="none" stroke="#404040" stroke-width="5" stroke-linecap="round"/><path d="M240.29761,158.05815v27.37246l-14.39385,14.39385" fill="none" stroke="#404040" stroke-width="5" stroke-linecap="round"/><path d="M241.36178,185.44158h27.03235" fill="none" stroke="#404040" stroke-width="5" stroke-linecap="round"/><g stroke="none" stroke-width="0" stroke-linecap="butt"><path d="M233,193v-34.5h34.5v34.5z" fill="#450000"/><path d="M251.77856,177.6975c0,0 -1.21839,3.28217 -3.37733,5.61526c-0.94857,1.02508 -2.28973,1.67561 -3.70938,2.16645c-1.01673,0.35153 -2.80131,0.26252 -2.80131,0.26252l-0.01101,-3.92773c0,0 0.90746,0.01878 1.60755,-0.14734c0.7737,-0.18359 1.34661,-0.55366 1.32836,-0.54942c-0.48059,0.11176 1.13652,-0.65542 1.86518,-2.23417c0.49512,-1.07276 2.38811,-5.85376 2.90464,-6.81701c1.49993,-2.79718 2.50951,-3.93212 3.92536,-4.89402c0.43811,-0.29764 1.95473,-1.30118 3.41998,-1.40597c0.35823,-0.02562 1.68987,-0.01615 1.68987,-0.01615l-0.01183,4.0108c0,0 -1.98843,0.30985 -2.62025,0.65822c-0.47878,0.31883 -1.43771,0.80821 -2.47491,3.15332c-0.09894,0.2237 2.89274,0.18217 2.89274,0.18217l-0.00395,3.94306z" fill="#f5f5f5"/></g><path d="M205.90375,219.14427h-11.23422v-40.72406l22.46845,-22.46845h14.39385h34.05374l4.56391,3.51069v40.02192l-4.47888,3.24465h-34.05374l-3.94679,-2.19144" fill="none" stroke="#404040" stroke-width="5" stroke-linecap="round"/></g></g></svg>